<svg xmlns="http://www.w3.org/2000/svg" width="688" height="440" font-family="system-ui,-apple-system,sans-serif" font-size="12">
<rect width="688" height="440" fill="white"/>
<text x="344.0" y="28" text-anchor="middle" font-size="15" font-weight="600">Tokenize Time Ratio (Rust / Python) — lower is better for Rust</text>
<line x1="80" y1="310.0" x2="668" y2="310.0" stroke="#e0e0e0" stroke-width="1"/>
<text x="74" y="314.0" text-anchor="end" fill="#666" font-size="10">0.00x</text>
<line x1="80" y1="258.0" x2="668" y2="258.0" stroke="#e0e0e0" stroke-width="1"/>
<text x="74" y="262.0" text-anchor="end" fill="#666" font-size="10">1.84x</text>
<line x1="80" y1="206.0" x2="668" y2="206.0" stroke="#e0e0e0" stroke-width="1"/>
<text x="74" y="210.0" text-anchor="end" fill="#666" font-size="10">3.69x</text>
<line x1="80" y1="154.0" x2="668" y2="154.0" stroke="#e0e0e0" stroke-width="1"/>
<text x="74" y="158.0" text-anchor="end" fill="#666" font-size="10">5.53x</text>
<line x1="80" y1="101.99999999999999" x2="668" y2="101.99999999999999" stroke="#e0e0e0" stroke-width="1"/>
<text x="74" y="105.99999999999999" text-anchor="end" fill="#666" font-size="10">7.37x</text>
<line x1="80" y1="50.0" x2="668" y2="50.0" stroke="#e0e0e0" stroke-width="1"/>
<text x="74" y="54.0" text-anchor="end" fill="#666" font-size="10">9.22x</text>
<line x1="80" y1="281.7877555070719" x2="668" y2="281.7877555070719" stroke="#e74c3c" stroke-width="1.5" stroke-dasharray="6,3"/>
<text x="672" y="285.7877555070719" fill="#e74c3c" font-size="10">1.0x (parity)</text>
<text x="14" y="180.0" text-anchor="middle" transform="rotate(-90,14,180.0)" fill="#333" font-size="11">Rust / Python ratio</text>
<rect x="92" y="178.86269769734542" width="36" height="131.13730230265458" fill="#4285f4" rx="3"/>
<text x="110.0" y="173.86269769734542" text-anchor="middle" fill="#333" font-size="9" font-weight="600">4.65x</text>
<text x="110.0" y="320" text-anchor="start" transform="rotate(45,110.0,320)" fill="#333" font-size="10">EEG 4ch x64t</text>
<rect x="140" y="179.2076885654454" width="36" height="130.7923114345546" fill="#4285f4" rx="3"/>
<text x="158.0" y="174.2076885654454" text-anchor="middle" fill="#333" font-size="9" font-weight="600">4.64x</text>
<text x="158.0" y="320" text-anchor="start" transform="rotate(45,158.0,320)" fill="#333" font-size="10">EEG 8ch x32t</text>
<rect x="188" y="179.11204392155653" width="36" height="130.88795607844347" fill="#4285f4" rx="3"/>
<text x="206.0" y="174.11204392155653" text-anchor="middle" fill="#333" font-size="9" font-weight="600">4.64x</text>
<text x="206.0" y="320" text-anchor="start" transform="rotate(45,206.0,320)" fill="#333" font-size="10">EEG 16ch x16t</text>
<rect x="236" y="178.06391505076962" width="36" height="131.93608494923038" fill="#4285f4" rx="3"/>
<text x="254.0" y="173.06391505076962" text-anchor="middle" fill="#333" font-size="9" font-weight="600">4.68x</text>
<text x="254.0" y="320" text-anchor="start" transform="rotate(45,254.0,320)" fill="#333" font-size="10">EEG 32ch x8t</text>
<rect x="284" y="177.93342471037747" width="36" height="132.06657528962253" fill="#4285f4" rx="3"/>
<text x="302.0" y="172.93342471037747" text-anchor="middle" fill="#333" font-size="9" font-weight="600">4.68x</text>
<text x="302.0" y="320" text-anchor="start" transform="rotate(45,302.0,320)" fill="#333" font-size="10">EEG 64ch x4t</text>
<rect x="332" y="84.89188777141584" width="36" height="225.10811222858416" fill="#ea4335" rx="3"/>
<text x="350.0" y="79.89188777141584" text-anchor="middle" fill="#333" font-size="9" font-weight="600">7.98x</text>
<text x="350.0" y="320" text-anchor="start" transform="rotate(45,350.0,320)" fill="#333" font-size="10">ECG 4ch x150t</text>
<rect x="380" y="85.772627298316" width="36" height="224.227372701684" fill="#ea4335" rx="3"/>
<text x="398.0" y="80.772627298316" text-anchor="middle" fill="#333" font-size="9" font-weight="600">7.95x</text>
<text x="398.0" y="320" text-anchor="start" transform="rotate(45,398.0,320)" fill="#333" font-size="10">ECG 8ch x75t</text>
<rect x="428" y="83.91304347826085" width="36" height="226.08695652173915" fill="#ea4335" rx="3"/>
<text x="446.0" y="78.91304347826085" text-anchor="middle" fill="#333" font-size="9" font-weight="600">8.01x</text>
<text x="446.0" y="320" text-anchor="start" transform="rotate(45,446.0,320)" fill="#333" font-size="10">ECG 12ch x50t</text>
<rect x="476" y="83.9368412726991" width="36" height="226.0631587273009" fill="#ea4335" rx="3"/>
<text x="494.0" y="78.9368412726991" text-anchor="middle" fill="#333" font-size="9" font-weight="600">8.01x</text>
<text x="494.0" y="320" text-anchor="start" transform="rotate(45,494.0,320)" fill="#333" font-size="10">ECG 15ch x40t</text>
<rect x="524" y="164.72672246497714" width="36" height="145.27327753502286" fill="#34a853" rx="3"/>
<text x="542.0" y="159.72672246497714" text-anchor="middle" fill="#333" font-size="9" font-weight="600">5.15x</text>
<text x="542.0" y="320" text-anchor="start" transform="rotate(45,542.0,320)" fill="#333" font-size="10">EMG 4ch x64t</text>
<rect x="572" y="164.30466941852205" width="36" height="145.69533058147795" fill="#34a853" rx="3"/>
<text x="590.0" y="159.30466941852205" text-anchor="middle" fill="#333" font-size="9" font-weight="600">5.16x</text>
<text x="590.0" y="320" text-anchor="start" transform="rotate(45,590.0,320)" fill="#333" font-size="10">EMG 8ch x32t</text>
<rect x="620" y="163.7409079073606" width="36" height="146.2590920926394" fill="#34a853" rx="3"/>
<text x="638.0" y="158.7409079073606" text-anchor="middle" fill="#333" font-size="9" font-weight="600">5.18x</text>
<text x="638.0" y="320" text-anchor="start" transform="rotate(45,638.0,320)" fill="#333" font-size="10">EMG 16ch x16t</text>
</svg>
