<svg xmlns="http://www.w3.org/2000/svg" width="256" height="430" font-family="system-ui,-apple-system,sans-serif" font-size="12">
<rect width="256" height="430" fill="white"/>
<text x="128" y="28" text-anchor="middle" font-size="15" font-weight="600">Model Construction Time (avg per modality)</text>
<line x1="80" y1="310" x2="236" y2="310" stroke="#e0e0e0" stroke-width="1"/>
<text x="74" y="314" text-anchor="end" fill="#666" font-size="10">0.0</text>
<line x1="80" y1="258" x2="236" y2="258" stroke="#e0e0e0" stroke-width="1"/>
<text x="74" y="262" text-anchor="end" fill="#666" font-size="10">8.8</text>
<line x1="80" y1="206" x2="236" y2="206" stroke="#e0e0e0" stroke-width="1"/>
<text x="74" y="210" text-anchor="end" fill="#666" font-size="10">17.5</text>
<line x1="80" y1="154" x2="236" y2="154" stroke="#e0e0e0" stroke-width="1"/>
<text x="74" y="158" text-anchor="end" fill="#666" font-size="10">26.3</text>
<line x1="80" y1="101.99999999999999" x2="236" y2="101.99999999999999" stroke="#e0e0e0" stroke-width="1"/>
<text x="74" y="105.99999999999999" text-anchor="end" fill="#666" font-size="10">35.1</text>
<line x1="80" y1="50" x2="236" y2="50" stroke="#e0e0e0" stroke-width="1"/>
<text x="74" y="54" text-anchor="end" fill="#666" font-size="10">43.9</text>
<text x="14" y="180" text-anchor="middle" transform="rotate(-90,14,180)" fill="#333" font-size="11">Time (ms)</text>
<rect x="92" y="182.6819692212676" width="36" height="127.3180307787324" fill="#4285f4" rx="3"/>
<text x="110" y="176.6819692212676" text-anchor="middle" fill="#333" font-size="9">21.5</text>
<text x="110" y="320" text-anchor="start" transform="rotate(45,110,320)" fill="#333" font-size="10">EEG</text>
<rect x="140" y="240.12251796871556" width="36" height="69.87748203128446" fill="#ea4335" rx="3"/>
<text x="158" y="234.12251796871556" text-anchor="middle" fill="#333" font-size="9">11.8</text>
<text x="158" y="320" text-anchor="start" transform="rotate(45,158,320)" fill="#333" font-size="10">ECG</text>
<rect x="188" y="83.91304347826085" width="36" height="226.08695652173915" fill="#34a853" rx="3"/>
<text x="206" y="77.91304347826085" text-anchor="middle" fill="#333" font-size="9">38.1</text>
<text x="206" y="320" text-anchor="start" transform="rotate(45,206,320)" fill="#333" font-size="10">EMG</text>
</svg>
