<svg xmlns="http://www.w3.org/2000/svg" width="352" height="430" font-family="system-ui,-apple-system,sans-serif" font-size="12">
<rect width="352" height="430" fill="white"/>
<text x="176" y="28" text-anchor="middle" font-size="15" font-weight="600">EEG Tokenize Latency vs Channel Count</text>
<line x1="80" y1="310" x2="332" y2="310" stroke="#e0e0e0" stroke-width="1"/>
<text x="74" y="314" text-anchor="end" fill="#666" font-size="10">0.0</text>
<line x1="80" y1="258" x2="332" y2="258" stroke="#e0e0e0" stroke-width="1"/>
<text x="74" y="262" text-anchor="end" fill="#666" font-size="10">197.4</text>
<line x1="80" y1="206" x2="332" y2="206" stroke="#e0e0e0" stroke-width="1"/>
<text x="74" y="210" text-anchor="end" fill="#666" font-size="10">394.8</text>
<line x1="80" y1="154" x2="332" y2="154" stroke="#e0e0e0" stroke-width="1"/>
<text x="74" y="158" text-anchor="end" fill="#666" font-size="10">592.3</text>
<line x1="80" y1="101.99999999999999" x2="332" y2="101.99999999999999" stroke="#e0e0e0" stroke-width="1"/>
<text x="74" y="105.99999999999999" text-anchor="end" fill="#666" font-size="10">789.7</text>
<line x1="80" y1="50" x2="332" y2="50" stroke="#e0e0e0" stroke-width="1"/>
<text x="74" y="54" text-anchor="end" fill="#666" font-size="10">987.1</text>
<text x="14" y="180" text-anchor="middle" transform="rotate(-90,14,180)" fill="#333" font-size="11">Latency (ms)</text>
<rect x="92" y="86.7048804714635" width="36" height="223.2951195285365" fill="#4285f4" rx="3"/>
<line x1="110" y1="84.92927416056638" x2="110" y2="88.48048678236061" stroke="#333" stroke-width="1.5"/>
<line x1="106" y1="84.92927416056638" x2="114" y2="84.92927416056638" stroke="#333" stroke-width="1.5"/>
<line x1="106" y1="88.48048678236061" x2="114" y2="88.48048678236061" stroke="#333" stroke-width="1.5"/>
<text x="110" y="80.7048804714635" text-anchor="middle" fill="#333" font-size="9">847.7</text>
<text x="110" y="320" text-anchor="start" transform="rotate(45,110,320)" fill="#333" font-size="10">4ch</text>
<rect x="140" y="86.9053739339032" width="36" height="223.0946260660968" fill="#4285f4" rx="3"/>
<line x1="158" y1="85.40478035176429" x2="158" y2="88.40596751604212" stroke="#333" stroke-width="1.5"/>
<line x1="154" y1="85.40478035176429" x2="162" y2="85.40478035176429" stroke="#333" stroke-width="1.5"/>
<line x1="154" y1="88.40596751604212" x2="162" y2="88.40596751604212" stroke="#333" stroke-width="1.5"/>
<text x="158" y="80.9053739339032" text-anchor="middle" fill="#333" font-size="9">847.0</text>
<text x="158" y="320" text-anchor="start" transform="rotate(45,158,320)" fill="#333" font-size="10">8ch</text>
<rect x="188" y="86.39412558622456" width="36" height="223.60587441377544" fill="#4285f4" rx="3"/>
<line x1="206" y1="85.24091450217988" x2="206" y2="87.54733667026925" stroke="#333" stroke-width="1.5"/>
<line x1="202" y1="85.24091450217988" x2="210" y2="85.24091450217988" stroke="#333" stroke-width="1.5"/>
<line x1="202" y1="87.54733667026925" x2="210" y2="87.54733667026925" stroke="#333" stroke-width="1.5"/>
<text x="206" y="80.39412558622456" text-anchor="middle" fill="#333" font-size="9">848.9</text>
<text x="206" y="320" text-anchor="start" transform="rotate(45,206,320)" fill="#333" font-size="10">16ch</text>
<rect x="236" y="85.97446681540438" width="36" height="224.02553318459562" fill="#4285f4" rx="3"/>
<line x1="254" y1="84.707266999712" x2="254" y2="87.24166663109676" stroke="#333" stroke-width="1.5"/>
<line x1="250" y1="84.707266999712" x2="258" y2="84.707266999712" stroke="#333" stroke-width="1.5"/>
<line x1="250" y1="87.24166663109676" x2="258" y2="87.24166663109676" stroke="#333" stroke-width="1.5"/>
<text x="254" y="79.97446681540438" text-anchor="middle" fill="#333" font-size="9">850.5</text>
<text x="254" y="320" text-anchor="start" transform="rotate(45,254,320)" fill="#333" font-size="10">32ch</text>
<rect x="284" y="85.03061021578739" width="36" height="224.9693897842126" fill="#4285f4" rx="3"/>
<line x1="302" y1="83.91304347826086" x2="302" y2="86.14817695331392" stroke="#333" stroke-width="1.5"/>
<line x1="298" y1="83.91304347826086" x2="306" y2="83.91304347826086" stroke="#333" stroke-width="1.5"/>
<line x1="298" y1="86.14817695331392" x2="306" y2="86.14817695331392" stroke="#333" stroke-width="1.5"/>
<text x="302" y="79.03061021578739" text-anchor="middle" fill="#333" font-size="9">854.1</text>
<text x="302" y="320" text-anchor="start" transform="rotate(45,302,320)" fill="#333" font-size="10">64ch</text>
</svg>
