<svg xmlns="http://www.w3.org/2000/svg" width="688" height="430" font-family="system-ui,-apple-system,sans-serif" font-size="12">
<rect width="688" height="430" fill="white"/>
<text x="344" y="28" text-anchor="middle" font-size="15" font-weight="600">Encode Latency (encoder + RVQ quantize)</text>
<line x1="80" y1="310" x2="668" y2="310" stroke="#e0e0e0" stroke-width="1"/>
<text x="74" y="314" text-anchor="end" fill="#666" font-size="10">0.0</text>
<line x1="80" y1="258" x2="668" y2="258" stroke="#e0e0e0" stroke-width="1"/>
<text x="74" y="262" text-anchor="end" fill="#666" font-size="10">503.8</text>
<line x1="80" y1="206" x2="668" y2="206" stroke="#e0e0e0" stroke-width="1"/>
<text x="74" y="210" text-anchor="end" fill="#666" font-size="10">1007.5</text>
<line x1="80" y1="154" x2="668" y2="154" stroke="#e0e0e0" stroke-width="1"/>
<text x="74" y="158" text-anchor="end" fill="#666" font-size="10">1511.3</text>
<line x1="80" y1="101.99999999999999" x2="668" y2="101.99999999999999" stroke="#e0e0e0" stroke-width="1"/>
<text x="74" y="105.99999999999999" text-anchor="end" fill="#666" font-size="10">2015.1</text>
<line x1="80" y1="50" x2="668" y2="50" stroke="#e0e0e0" stroke-width="1"/>
<text x="74" y="54" text-anchor="end" fill="#666" font-size="10">2518.8</text>
<text x="14" y="180" text-anchor="middle" transform="rotate(-90,14,180)" fill="#333" font-size="11">Latency (ms)</text>
<rect x="92" y="224.1990443554845" width="36" height="85.80095564451553" fill="#4285f4" rx="3"/>
<line x1="110" y1="223.7516866603849" x2="110" y2="224.64640205058407" stroke="#333" stroke-width="1.5"/>
<line x1="106" y1="223.7516866603849" x2="114" y2="223.7516866603849" stroke="#333" stroke-width="1.5"/>
<line x1="106" y1="224.64640205058407" x2="114" y2="224.64640205058407" stroke="#333" stroke-width="1.5"/>
<text x="110" y="218.1990443554845" text-anchor="middle" fill="#333" font-size="9">831.2</text>
<text x="110" y="320" text-anchor="start" transform="rotate(45,110,320)" fill="#333" font-size="10">EEG 4ch x64t</text>
<rect x="140" y="224.14367531458203" width="36" height="85.85632468541799" fill="#4285f4" rx="3"/>
<line x1="158" y1="223.66477422959696" x2="158" y2="224.6225763995671" stroke="#333" stroke-width="1.5"/>
<line x1="154" y1="223.66477422959696" x2="162" y2="223.66477422959696" stroke="#333" stroke-width="1.5"/>
<line x1="154" y1="224.6225763995671" x2="162" y2="224.6225763995671" stroke="#333" stroke-width="1.5"/>
<text x="158" y="218.14367531458203" text-anchor="middle" fill="#333" font-size="9">831.8</text>
<text x="158" y="320" text-anchor="start" transform="rotate(45,158,320)" fill="#333" font-size="10">EEG 8ch x32t</text>
<rect x="188" y="224.21251750435735" width="36" height="85.78748249564265" fill="#4285f4" rx="3"/>
<line x1="206" y1="223.74233111277678" x2="206" y2="224.68270389593792" stroke="#333" stroke-width="1.5"/>
<line x1="202" y1="223.74233111277678" x2="210" y2="223.74233111277678" stroke="#333" stroke-width="1.5"/>
<line x1="202" y1="224.68270389593792" x2="210" y2="224.68270389593792" stroke="#333" stroke-width="1.5"/>
<text x="206" y="218.21251750435735" text-anchor="middle" fill="#333" font-size="9">831.1</text>
<text x="206" y="320" text-anchor="start" transform="rotate(45,206,320)" fill="#333" font-size="10">EEG 16ch x16t</text>
<rect x="236" y="223.91195676833945" width="36" height="86.08804323166054" fill="#4285f4" rx="3"/>
<line x1="254" y1="223.475772040244" x2="254" y2="224.3481414964349" stroke="#333" stroke-width="1.5"/>
<line x1="250" y1="223.475772040244" x2="258" y2="223.475772040244" stroke="#333" stroke-width="1.5"/>
<line x1="250" y1="224.3481414964349" x2="258" y2="224.3481414964349" stroke="#333" stroke-width="1.5"/>
<text x="254" y="217.91195676833945" text-anchor="middle" fill="#333" font-size="9">834.0</text>
<text x="254" y="320" text-anchor="start" transform="rotate(45,254,320)" fill="#333" font-size="10">EEG 32ch x8t</text>
<rect x="284" y="223.83442750345955" width="36" height="86.16557249654045" fill="#4285f4" rx="3"/>
<line x1="302" y1="223.42574835883957" x2="302" y2="224.24310664807953" stroke="#333" stroke-width="1.5"/>
<line x1="298" y1="223.42574835883957" x2="306" y2="223.42574835883957" stroke="#333" stroke-width="1.5"/>
<line x1="298" y1="224.24310664807953" x2="306" y2="224.24310664807953" stroke="#333" stroke-width="1.5"/>
<text x="302" y="217.83442750345955" text-anchor="middle" fill="#333" font-size="9">834.8</text>
<text x="302" y="320" text-anchor="start" transform="rotate(45,302,320)" fill="#333" font-size="10">EEG 64ch x4t</text>
<rect x="332" y="86.06613006158892" width="36" height="223.93386993841108" fill="#ea4335" rx="3"/>
<line x1="350" y1="85.81716032352648" x2="350" y2="86.31509979965136" stroke="#333" stroke-width="1.5"/>
<line x1="346" y1="85.81716032352648" x2="354" y2="85.81716032352648" stroke="#333" stroke-width="1.5"/>
<line x1="346" y1="86.31509979965136" x2="354" y2="86.31509979965136" stroke="#333" stroke-width="1.5"/>
<text x="350" y="80.06613006158892" text-anchor="middle" fill="#333" font-size="9">2169.4</text>
<text x="350" y="320" text-anchor="start" transform="rotate(45,350,320)" fill="#333" font-size="10">ECG 4ch x150t</text>
<rect x="380" y="85.31577398586239" width="36" height="224.6842260141376" fill="#ea4335" rx="3"/>
<line x1="398" y1="83.91304347826083" x2="398" y2="86.71850449346395" stroke="#333" stroke-width="1.5"/>
<line x1="394" y1="83.91304347826083" x2="402" y2="83.91304347826083" stroke="#333" stroke-width="1.5"/>
<line x1="394" y1="86.71850449346395" x2="402" y2="86.71850449346395" stroke="#333" stroke-width="1.5"/>
<text x="398" y="79.31577398586239" text-anchor="middle" fill="#333" font-size="9">2176.7</text>
<text x="398" y="320" text-anchor="start" transform="rotate(45,398,320)" fill="#333" font-size="10">ECG 8ch x75t</text>
<rect x="428" y="85.5104613798378" width="36" height="224.4895386201622" fill="#ea4335" rx="3"/>
<line x1="446" y1="85.09686949917318" x2="446" y2="85.92405326050243" stroke="#333" stroke-width="1.5"/>
<line x1="442" y1="85.09686949917318" x2="450" y2="85.09686949917318" stroke="#333" stroke-width="1.5"/>
<line x1="442" y1="85.92405326050243" x2="450" y2="85.92405326050243" stroke="#333" stroke-width="1.5"/>
<text x="446" y="79.5104613798378" text-anchor="middle" fill="#333" font-size="9">2174.8</text>
<text x="446" y="320" text-anchor="start" transform="rotate(45,446,320)" fill="#333" font-size="10">ECG 12ch x50t</text>
<rect x="476" y="85.19621590912516" width="36" height="224.80378409087484" fill="#ea4335" rx="3"/>
<line x1="494" y1="84.77449632397996" x2="494" y2="85.61793549427036" stroke="#333" stroke-width="1.5"/>
<line x1="490" y1="84.77449632397996" x2="498" y2="84.77449632397996" stroke="#333" stroke-width="1.5"/>
<line x1="490" y1="85.61793549427036" x2="498" y2="85.61793549427036" stroke="#333" stroke-width="1.5"/>
<text x="494" y="79.19621590912516" text-anchor="middle" fill="#333" font-size="9">2177.9</text>
<text x="494" y="320" text-anchor="start" transform="rotate(45,494,320)" fill="#333" font-size="10">ECG 15ch x40t</text>
<rect x="524" y="174.63710898601275" width="36" height="135.36289101398725" fill="#34a853" rx="3"/>
<line x1="542" y1="174.2837584555168" x2="542" y2="174.9904595165087" stroke="#333" stroke-width="1.5"/>
<line x1="538" y1="174.2837584555168" x2="546" y2="174.2837584555168" stroke="#333" stroke-width="1.5"/>
<line x1="538" y1="174.9904595165087" x2="546" y2="174.9904595165087" stroke="#333" stroke-width="1.5"/>
<text x="542" y="168.63710898601275" text-anchor="middle" fill="#333" font-size="9">1311.4</text>
<text x="542" y="320" text-anchor="start" transform="rotate(45,542,320)" fill="#333" font-size="10">EMG 4ch x64t</text>
<rect x="572" y="174.18100282923916" width="36" height="135.81899717076084" fill="#34a853" rx="3"/>
<line x1="590" y1="173.69205315906117" x2="590" y2="174.66995249941715" stroke="#333" stroke-width="1.5"/>
<line x1="586" y1="173.69205315906117" x2="594" y2="173.69205315906117" stroke="#333" stroke-width="1.5"/>
<line x1="586" y1="174.66995249941715" x2="594" y2="174.66995249941715" stroke="#333" stroke-width="1.5"/>
<text x="590" y="168.18100282923916" text-anchor="middle" fill="#333" font-size="9">1315.8</text>
<text x="590" y="320" text-anchor="start" transform="rotate(45,590,320)" fill="#333" font-size="10">EMG 8ch x32t</text>
<rect x="620" y="174.21445514843452" width="36" height="135.78554485156548" fill="#34a853" rx="3"/>
<line x1="638" y1="173.83302996464357" x2="638" y2="174.59588033222548" stroke="#333" stroke-width="1.5"/>
<line x1="634" y1="173.83302996464357" x2="642" y2="173.83302996464357" stroke="#333" stroke-width="1.5"/>
<line x1="634" y1="174.59588033222548" x2="642" y2="174.59588033222548" stroke="#333" stroke-width="1.5"/>
<text x="638" y="168.21445514843452" text-anchor="middle" fill="#333" font-size="9">1315.5</text>
<text x="638" y="320" text-anchor="start" transform="rotate(45,638,320)" fill="#333" font-size="10">EMG 16ch x16t</text>
</svg>
