<svg xmlns="http://www.w3.org/2000/svg" width="688" height="430" font-family="system-ui,-apple-system,sans-serif" font-size="12">
<rect width="688" height="430" fill="white"/>
<text x="344" y="28" text-anchor="middle" font-size="15" font-weight="600">Encode Latency (encoder + RVQ quantize)</text>
<line x1="80" y1="310" x2="668" y2="310" stroke="#e0e0e0" stroke-width="1"/>
<text x="74" y="314" text-anchor="end" fill="#666" font-size="10">0.0</text>
<line x1="80" y1="258" x2="668" y2="258" stroke="#e0e0e0" stroke-width="1"/>
<text x="74" y="262" text-anchor="end" fill="#666" font-size="10">511.7</text>
<line x1="80" y1="206" x2="668" y2="206" stroke="#e0e0e0" stroke-width="1"/>
<text x="74" y="210" text-anchor="end" fill="#666" font-size="10">1023.3</text>
<line x1="80" y1="154" x2="668" y2="154" stroke="#e0e0e0" stroke-width="1"/>
<text x="74" y="158" text-anchor="end" fill="#666" font-size="10">1535.0</text>
<line x1="80" y1="101.99999999999999" x2="668" y2="101.99999999999999" stroke="#e0e0e0" stroke-width="1"/>
<text x="74" y="105.99999999999999" text-anchor="end" fill="#666" font-size="10">2046.7</text>
<line x1="80" y1="50" x2="668" y2="50" stroke="#e0e0e0" stroke-width="1"/>
<text x="74" y="54" text-anchor="end" fill="#666" font-size="10">2558.3</text>
<text x="14" y="180" text-anchor="middle" transform="rotate(-90,14,180)" fill="#333" font-size="11">Latency (ms)</text>
<rect x="92" y="224.4897566178289" width="36" height="85.51024338217108" fill="#4285f4" rx="3"/>
<line x1="110" y1="224.04402386760768" x2="110" y2="224.93548936805013" stroke="#333" stroke-width="1.5"/>
<line x1="106" y1="224.04402386760768" x2="114" y2="224.04402386760768" stroke="#333" stroke-width="1.5"/>
<line x1="106" y1="224.93548936805013" x2="114" y2="224.93548936805013" stroke="#333" stroke-width="1.5"/>
<text x="110" y="218.4897566178289" text-anchor="middle" fill="#333" font-size="9">841.4</text>
<text x="110" y="320" text-anchor="start" transform="rotate(45,110,320)" fill="#333" font-size="10">EEG 4ch x64t</text>
<rect x="140" y="224.15076410344187" width="36" height="85.84923589655814" fill="#4285f4" rx="3"/>
<line x1="158" y1="223.75684382891973" x2="158" y2="224.54468437796402" stroke="#333" stroke-width="1.5"/>
<line x1="154" y1="223.75684382891973" x2="162" y2="223.75684382891973" stroke="#333" stroke-width="1.5"/>
<line x1="154" y1="224.54468437796402" x2="162" y2="224.54468437796402" stroke="#333" stroke-width="1.5"/>
<text x="158" y="218.15076410344187" text-anchor="middle" fill="#333" font-size="9">844.7</text>
<text x="158" y="320" text-anchor="start" transform="rotate(45,158,320)" fill="#333" font-size="10">EEG 8ch x32t</text>
<rect x="188" y="223.99584505621198" width="36" height="86.00415494378802" fill="#4285f4" rx="3"/>
<line x1="206" y1="223.42286153821277" x2="206" y2="224.56882857421118" stroke="#333" stroke-width="1.5"/>
<line x1="202" y1="223.42286153821277" x2="210" y2="223.42286153821277" stroke="#333" stroke-width="1.5"/>
<line x1="202" y1="224.56882857421118" x2="210" y2="224.56882857421118" stroke="#333" stroke-width="1.5"/>
<text x="206" y="217.99584505621198" text-anchor="middle" fill="#333" font-size="9">846.3</text>
<text x="206" y="320" text-anchor="start" transform="rotate(45,206,320)" fill="#333" font-size="10">EEG 16ch x16t</text>
<rect x="236" y="223.56434728319837" width="36" height="86.43565271680163" fill="#4285f4" rx="3"/>
<line x1="254" y1="223.1251152459921" x2="254" y2="224.00357932040464" stroke="#333" stroke-width="1.5"/>
<line x1="250" y1="223.1251152459921" x2="258" y2="223.1251152459921" stroke="#333" stroke-width="1.5"/>
<line x1="250" y1="224.00357932040464" x2="258" y2="224.00357932040464" stroke="#333" stroke-width="1.5"/>
<text x="254" y="217.56434728319837" text-anchor="middle" fill="#333" font-size="9">850.5</text>
<text x="254" y="320" text-anchor="start" transform="rotate(45,254,320)" fill="#333" font-size="10">EEG 32ch x8t</text>
<rect x="284" y="223.19126245881228" width="36" height="86.80873754118772" fill="#4285f4" rx="3"/>
<line x1="302" y1="222.67105953103976" x2="302" y2="223.7114653865848" stroke="#333" stroke-width="1.5"/>
<line x1="298" y1="222.67105953103976" x2="306" y2="222.67105953103976" stroke="#333" stroke-width="1.5"/>
<line x1="298" y1="223.7114653865848" x2="306" y2="223.7114653865848" stroke="#333" stroke-width="1.5"/>
<text x="302" y="217.19126245881228" text-anchor="middle" fill="#333" font-size="9">854.2</text>
<text x="302" y="320" text-anchor="start" transform="rotate(45,302,320)" fill="#333" font-size="10">EEG 64ch x4t</text>
<rect x="332" y="85.2889685451317" width="36" height="224.7110314548683" fill="#ea4335" rx="3"/>
<line x1="350" y1="84.9317249150632" x2="350" y2="85.64621217520019" stroke="#333" stroke-width="1.5"/>
<line x1="346" y1="84.9317249150632" x2="354" y2="84.9317249150632" stroke="#333" stroke-width="1.5"/>
<line x1="346" y1="85.64621217520019" x2="354" y2="85.64621217520019" stroke="#333" stroke-width="1.5"/>
<text x="350" y="79.2889685451317" text-anchor="middle" fill="#333" font-size="9">2211.1</text>
<text x="350" y="320" text-anchor="start" transform="rotate(45,350,320)" fill="#333" font-size="10">ECG 4ch x150t</text>
<rect x="380" y="84.88061506494918" width="36" height="225.11938493505082" fill="#ea4335" rx="3"/>
<line x1="398" y1="84.47457169256289" x2="398" y2="85.28665843733548" stroke="#333" stroke-width="1.5"/>
<line x1="394" y1="84.47457169256289" x2="402" y2="84.47457169256289" stroke="#333" stroke-width="1.5"/>
<line x1="394" y1="85.28665843733548" x2="402" y2="85.28665843733548" stroke="#333" stroke-width="1.5"/>
<text x="398" y="78.88061506494918" text-anchor="middle" fill="#333" font-size="9">2215.1</text>
<text x="398" y="320" text-anchor="start" transform="rotate(45,398,320)" fill="#333" font-size="10">ECG 8ch x75t</text>
<rect x="428" y="84.4723708359682" width="36" height="225.5276291640318" fill="#ea4335" rx="3"/>
<line x1="446" y1="83.91304347826085" x2="446" y2="85.03169819367557" stroke="#333" stroke-width="1.5"/>
<line x1="442" y1="83.91304347826085" x2="450" y2="83.91304347826085" stroke="#333" stroke-width="1.5"/>
<line x1="442" y1="85.03169819367557" x2="450" y2="85.03169819367557" stroke="#333" stroke-width="1.5"/>
<text x="446" y="78.4723708359682" text-anchor="middle" fill="#333" font-size="9">2219.1</text>
<text x="446" y="320" text-anchor="start" transform="rotate(45,446,320)" fill="#333" font-size="10">ECG 12ch x50t</text>
<rect x="476" y="84.42337300344127" width="36" height="225.57662699655873" fill="#ea4335" rx="3"/>
<line x1="494" y1="83.95638770660824" x2="494" y2="84.8903583002743" stroke="#333" stroke-width="1.5"/>
<line x1="490" y1="83.95638770660824" x2="498" y2="83.95638770660824" stroke="#333" stroke-width="1.5"/>
<line x1="490" y1="84.8903583002743" x2="498" y2="84.8903583002743" stroke="#333" stroke-width="1.5"/>
<text x="494" y="78.42337300344127" text-anchor="middle" fill="#333" font-size="9">2219.6</text>
<text x="494" y="320" text-anchor="start" transform="rotate(45,494,320)" fill="#333" font-size="10">ECG 15ch x40t</text>
<rect x="524" y="173.80997306276873" width="36" height="136.19002693723127" fill="#34a853" rx="3"/>
<line x1="542" y1="173.53487543357895" x2="542" y2="174.08507069195852" stroke="#333" stroke-width="1.5"/>
<line x1="538" y1="173.53487543357895" x2="546" y2="173.53487543357895" stroke="#333" stroke-width="1.5"/>
<line x1="538" y1="174.08507069195852" x2="546" y2="174.08507069195852" stroke="#333" stroke-width="1.5"/>
<text x="542" y="167.80997306276873" text-anchor="middle" fill="#333" font-size="9">1340.1</text>
<text x="542" y="320" text-anchor="start" transform="rotate(45,542,320)" fill="#333" font-size="10">EMG 4ch x64t</text>
<rect x="572" y="173.31047867328965" width="36" height="136.68952132671035" fill="#34a853" rx="3"/>
<line x1="590" y1="172.9146295513027" x2="590" y2="173.7063277952766" stroke="#333" stroke-width="1.5"/>
<line x1="586" y1="172.9146295513027" x2="594" y2="172.9146295513027" stroke="#333" stroke-width="1.5"/>
<line x1="586" y1="173.7063277952766" x2="594" y2="173.7063277952766" stroke="#333" stroke-width="1.5"/>
<text x="590" y="167.31047867328965" text-anchor="middle" fill="#333" font-size="9">1345.0</text>
<text x="590" y="320" text-anchor="start" transform="rotate(45,590,320)" fill="#333" font-size="10">EMG 8ch x32t</text>
<rect x="620" y="173.1176558007948" width="36" height="136.8823441992052" fill="#34a853" rx="3"/>
<line x1="638" y1="172.62712972673563" x2="638" y2="173.60818187485398" stroke="#333" stroke-width="1.5"/>
<line x1="634" y1="172.62712972673563" x2="642" y2="172.62712972673563" stroke="#333" stroke-width="1.5"/>
<line x1="634" y1="173.60818187485398" x2="642" y2="173.60818187485398" stroke="#333" stroke-width="1.5"/>
<text x="638" y="167.1176558007948" text-anchor="middle" fill="#333" font-size="9">1346.9</text>
<text x="638" y="320" text-anchor="start" transform="rotate(45,638,320)" fill="#333" font-size="10">EMG 16ch x16t</text>
</svg>
