<svg xmlns="http://www.w3.org/2000/svg" width="688" height="430" font-family="system-ui,-apple-system,sans-serif" font-size="12">
<rect width="688" height="430" fill="white"/>
<text x="344" y="28" text-anchor="middle" font-size="15" font-weight="600">Tokenize Latency (all configurations)</text>
<line x1="80" y1="310" x2="668" y2="310" stroke="#e0e0e0" stroke-width="1"/>
<text x="74" y="314" text-anchor="end" fill="#666" font-size="10">0.0</text>
<line x1="80" y1="258" x2="668" y2="258" stroke="#e0e0e0" stroke-width="1"/>
<text x="74" y="262" text-anchor="end" fill="#666" font-size="10">502.0</text>
<line x1="80" y1="206" x2="668" y2="206" stroke="#e0e0e0" stroke-width="1"/>
<text x="74" y="210" text-anchor="end" fill="#666" font-size="10">1003.9</text>
<line x1="80" y1="154" x2="668" y2="154" stroke="#e0e0e0" stroke-width="1"/>
<text x="74" y="158" text-anchor="end" fill="#666" font-size="10">1505.9</text>
<line x1="80" y1="101.99999999999999" x2="668" y2="101.99999999999999" stroke="#e0e0e0" stroke-width="1"/>
<text x="74" y="105.99999999999999" text-anchor="end" fill="#666" font-size="10">2007.9</text>
<line x1="80" y1="50" x2="668" y2="50" stroke="#e0e0e0" stroke-width="1"/>
<text x="74" y="54" text-anchor="end" fill="#666" font-size="10">2509.9</text>
<text x="14" y="180" text-anchor="middle" transform="rotate(-90,14,180)" fill="#333" font-size="11">Latency (ms)</text>
<rect x="92" y="223.80776973900214" width="36" height="86.19223026099785" fill="#4285f4" rx="3"/>
<line x1="110" y1="223.34992334147688" x2="110" y2="224.2656161365274" stroke="#333" stroke-width="1.5"/>
<line x1="106" y1="223.34992334147688" x2="114" y2="223.34992334147688" stroke="#333" stroke-width="1.5"/>
<line x1="106" y1="224.2656161365274" x2="114" y2="224.2656161365274" stroke="#333" stroke-width="1.5"/>
<text x="110" y="217.80776973900214" text-anchor="middle" fill="#333" font-size="9">832.0</text>
<text x="110" y="320" text-anchor="start" transform="rotate(45,110,320)" fill="#333" font-size="10">EEG 4ch x64t</text>
<rect x="140" y="223.78717489319297" width="36" height="86.21282510680703" fill="#4285f4" rx="3"/>
<line x1="158" y1="223.40257037074852" x2="158" y2="224.17177941563742" stroke="#333" stroke-width="1.5"/>
<line x1="154" y1="223.40257037074852" x2="162" y2="223.40257037074852" stroke="#333" stroke-width="1.5"/>
<line x1="154" y1="224.17177941563742" x2="162" y2="224.17177941563742" stroke="#333" stroke-width="1.5"/>
<text x="158" y="217.78717489319297" text-anchor="middle" fill="#333" font-size="9">832.2</text>
<text x="158" y="320" text-anchor="start" transform="rotate(45,158,320)" fill="#333" font-size="10">EEG 8ch x32t</text>
<rect x="188" y="223.6524193456748" width="36" height="86.34758065432521" fill="#4285f4" rx="3"/>
<line x1="206" y1="223.21860125599574" x2="206" y2="224.08623743535384" stroke="#333" stroke-width="1.5"/>
<line x1="202" y1="223.21860125599574" x2="210" y2="223.21860125599574" stroke="#333" stroke-width="1.5"/>
<line x1="202" y1="224.08623743535384" x2="210" y2="224.08623743535384" stroke="#333" stroke-width="1.5"/>
<text x="206" y="217.6524193456748" text-anchor="middle" fill="#333" font-size="9">833.5</text>
<text x="206" y="320" text-anchor="start" transform="rotate(45,206,320)" fill="#333" font-size="10">EEG 16ch x16t</text>
<rect x="236" y="223.73972467938933" width="36" height="86.26027532061066" fill="#4285f4" rx="3"/>
<line x1="254" y1="223.22390806741424" x2="254" y2="224.2555412913644" stroke="#333" stroke-width="1.5"/>
<line x1="250" y1="223.22390806741424" x2="258" y2="223.22390806741424" stroke="#333" stroke-width="1.5"/>
<line x1="250" y1="224.2555412913644" x2="258" y2="224.2555412913644" stroke="#333" stroke-width="1.5"/>
<text x="254" y="217.73972467938933" text-anchor="middle" fill="#333" font-size="9">832.7</text>
<text x="254" y="320" text-anchor="start" transform="rotate(45,254,320)" fill="#333" font-size="10">EEG 32ch x8t</text>
<rect x="284" y="223.42643664890767" width="36" height="86.57356335109233" fill="#4285f4" rx="3"/>
<line x1="302" y1="222.96869568718668" x2="302" y2="223.88417761062865" stroke="#333" stroke-width="1.5"/>
<line x1="298" y1="222.96869568718668" x2="306" y2="222.96869568718668" stroke="#333" stroke-width="1.5"/>
<line x1="298" y1="223.88417761062865" x2="306" y2="223.88417761062865" stroke="#333" stroke-width="1.5"/>
<text x="302" y="217.42643664890767" text-anchor="middle" fill="#333" font-size="9">835.7</text>
<text x="302" y="320" text-anchor="start" transform="rotate(45,302,320)" fill="#333" font-size="10">EEG 64ch x4t</text>
<rect x="332" y="85.14124110275222" width="36" height="224.85875889724778" fill="#ea4335" rx="3"/>
<line x1="350" y1="84.68530806482525" x2="350" y2="85.59717414067919" stroke="#333" stroke-width="1.5"/>
<line x1="346" y1="84.68530806482525" x2="354" y2="84.68530806482525" stroke="#333" stroke-width="1.5"/>
<line x1="346" y1="85.59717414067919" x2="354" y2="85.59717414067919" stroke="#333" stroke-width="1.5"/>
<text x="350" y="79.14124110275222" text-anchor="middle" fill="#333" font-size="9">2170.6</text>
<text x="350" y="320" text-anchor="start" transform="rotate(45,350,320)" fill="#333" font-size="10">ECG 4ch x150t</text>
<rect x="380" y="84.9237438911484" width="36" height="225.0762561088516" fill="#ea4335" rx="3"/>
<line x1="398" y1="84.56404434243795" x2="398" y2="85.28344343985886" stroke="#333" stroke-width="1.5"/>
<line x1="394" y1="84.56404434243795" x2="402" y2="84.56404434243795" stroke="#333" stroke-width="1.5"/>
<line x1="394" y1="85.28344343985886" x2="402" y2="85.28344343985886" stroke="#333" stroke-width="1.5"/>
<text x="398" y="78.9237438911484" text-anchor="middle" fill="#333" font-size="9">2172.7</text>
<text x="398" y="320" text-anchor="start" transform="rotate(45,398,320)" fill="#333" font-size="10">ECG 8ch x75t</text>
<rect x="428" y="84.61168858102727" width="36" height="225.38831141897273" fill="#ea4335" rx="3"/>
<line x1="446" y1="84.27666750444843" x2="446" y2="84.9467096576061" stroke="#333" stroke-width="1.5"/>
<line x1="442" y1="84.27666750444843" x2="450" y2="84.27666750444843" stroke="#333" stroke-width="1.5"/>
<line x1="442" y1="84.9467096576061" x2="450" y2="84.9467096576061" stroke="#333" stroke-width="1.5"/>
<text x="446" y="78.61168858102727" text-anchor="middle" fill="#333" font-size="9">2175.7</text>
<text x="446" y="320" text-anchor="start" transform="rotate(45,446,320)" fill="#333" font-size="10">ECG 12ch x50t</text>
<rect x="476" y="84.2047364275713" width="36" height="225.7952635724287" fill="#ea4335" rx="3"/>
<line x1="494" y1="83.91304347826089" x2="494" y2="84.49642937688172" stroke="#333" stroke-width="1.5"/>
<line x1="490" y1="83.91304347826089" x2="498" y2="83.91304347826089" stroke="#333" stroke-width="1.5"/>
<line x1="490" y1="84.49642937688172" x2="498" y2="84.49642937688172" stroke="#333" stroke-width="1.5"/>
<text x="494" y="78.2047364275713" text-anchor="middle" fill="#333" font-size="9">2179.7</text>
<text x="494" y="320" text-anchor="start" transform="rotate(45,494,320)" fill="#333" font-size="10">ECG 15ch x40t</text>
<rect x="524" y="174.13905493421177" width="36" height="135.86094506578823" fill="#34a853" rx="3"/>
<line x1="542" y1="173.59741812696348" x2="542" y2="174.68069174146007" stroke="#333" stroke-width="1.5"/>
<line x1="538" y1="173.59741812696348" x2="546" y2="173.59741812696348" stroke="#333" stroke-width="1.5"/>
<line x1="538" y1="174.68069174146007" x2="546" y2="174.68069174146007" stroke="#333" stroke-width="1.5"/>
<text x="542" y="168.13905493421177" text-anchor="middle" fill="#333" font-size="9">1311.5</text>
<text x="542" y="320" text-anchor="start" transform="rotate(45,542,320)" fill="#333" font-size="10">EMG 4ch x64t</text>
<rect x="572" y="173.83812193206242" width="36" height="136.16187806793758" fill="#34a853" rx="3"/>
<line x1="590" y1="173.3271252182585" x2="590" y2="174.34911864586635" stroke="#333" stroke-width="1.5"/>
<line x1="586" y1="173.3271252182585" x2="594" y2="173.3271252182585" stroke="#333" stroke-width="1.5"/>
<line x1="586" y1="174.34911864586635" x2="594" y2="174.34911864586635" stroke="#333" stroke-width="1.5"/>
<text x="590" y="167.83812193206242" text-anchor="middle" fill="#333" font-size="9">1314.4</text>
<text x="590" y="320" text-anchor="start" transform="rotate(45,590,320)" fill="#333" font-size="10">EMG 8ch x32t</text>
<rect x="620" y="173.49046522533084" width="36" height="136.50953477466916" fill="#34a853" rx="3"/>
<line x1="638" y1="173.13240984370995" x2="638" y2="173.84852060695172" stroke="#333" stroke-width="1.5"/>
<line x1="634" y1="173.13240984370995" x2="642" y2="173.13240984370995" stroke="#333" stroke-width="1.5"/>
<line x1="634" y1="173.84852060695172" x2="642" y2="173.84852060695172" stroke="#333" stroke-width="1.5"/>
<text x="638" y="167.49046522533084" text-anchor="middle" fill="#333" font-size="9">1317.8</text>
<text x="638" y="320" text-anchor="start" transform="rotate(45,638,320)" fill="#333" font-size="10">EMG 16ch x16t</text>
</svg>
