<svg xmlns="http://www.w3.org/2000/svg" width="688" height="430" font-family="system-ui,-apple-system,sans-serif" font-size="12">
<rect width="688" height="430" fill="white"/>
<text x="344" y="28" text-anchor="middle" font-size="15" font-weight="600">Tokenize Latency (all configurations)</text>
<line x1="80" y1="310" x2="668" y2="310" stroke="#e0e0e0" stroke-width="1"/>
<text x="74" y="314" text-anchor="end" fill="#666" font-size="10">0.0</text>
<line x1="80" y1="258" x2="668" y2="258" stroke="#e0e0e0" stroke-width="1"/>
<text x="74" y="262" text-anchor="end" fill="#666" font-size="10">512.9</text>
<line x1="80" y1="206" x2="668" y2="206" stroke="#e0e0e0" stroke-width="1"/>
<text x="74" y="210" text-anchor="end" fill="#666" font-size="10">1025.8</text>
<line x1="80" y1="154" x2="668" y2="154" stroke="#e0e0e0" stroke-width="1"/>
<text x="74" y="158" text-anchor="end" fill="#666" font-size="10">1538.6</text>
<line x1="80" y1="101.99999999999999" x2="668" y2="101.99999999999999" stroke="#e0e0e0" stroke-width="1"/>
<text x="74" y="105.99999999999999" text-anchor="end" fill="#666" font-size="10">2051.5</text>
<line x1="80" y1="50" x2="668" y2="50" stroke="#e0e0e0" stroke-width="1"/>
<text x="74" y="54" text-anchor="end" fill="#666" font-size="10">2564.4</text>
<text x="14" y="180" text-anchor="middle" transform="rotate(-90,14,180)" fill="#333" font-size="11">Latency (ms)</text>
<rect x="92" y="224.04847199471521" width="36" height="85.95152800528479" fill="#4285f4" rx="3"/>
<line x1="110" y1="223.36499948586834" x2="110" y2="224.7319445035621" stroke="#333" stroke-width="1.5"/>
<line x1="106" y1="223.36499948586834" x2="114" y2="223.36499948586834" stroke="#333" stroke-width="1.5"/>
<line x1="106" y1="224.7319445035621" x2="114" y2="224.7319445035621" stroke="#333" stroke-width="1.5"/>
<text x="110" y="218.04847199471521" text-anchor="middle" fill="#333" font-size="9">847.7</text>
<text x="110" y="320" text-anchor="start" transform="rotate(45,110,320)" fill="#333" font-size="10">EEG 4ch x64t</text>
<rect x="140" y="224.12564663018486" width="36" height="85.87435336981515" fill="#4285f4" rx="3"/>
<line x1="158" y1="223.54803296996656" x2="158" y2="224.70326029040316" stroke="#333" stroke-width="1.5"/>
<line x1="154" y1="223.54803296996656" x2="162" y2="223.54803296996656" stroke="#333" stroke-width="1.5"/>
<line x1="154" y1="224.70326029040316" x2="162" y2="224.70326029040316" stroke="#333" stroke-width="1.5"/>
<text x="158" y="218.12564663018486" text-anchor="middle" fill="#333" font-size="9">847.0</text>
<text x="158" y="320" text-anchor="start" transform="rotate(45,158,320)" fill="#333" font-size="10">EEG 8ch x32t</text>
<rect x="188" y="223.9288551518671" width="36" height="86.07114484813289" fill="#4285f4" rx="3"/>
<line x1="206" y1="223.48495716163987" x2="206" y2="224.37275314209435" stroke="#333" stroke-width="1.5"/>
<line x1="202" y1="223.48495716163987" x2="210" y2="223.48495716163987" stroke="#333" stroke-width="1.5"/>
<line x1="202" y1="224.37275314209435" x2="210" y2="224.37275314209435" stroke="#333" stroke-width="1.5"/>
<text x="206" y="217.9288551518671" text-anchor="middle" fill="#333" font-size="9">848.9</text>
<text x="206" y="320" text-anchor="start" transform="rotate(45,206,320)" fill="#333" font-size="10">EEG 16ch x16t</text>
<rect x="236" y="223.76731864955138" width="36" height="86.23268135044863" fill="#4285f4" rx="3"/>
<line x1="254" y1="223.2795437233607" x2="254" y2="224.25509357574208" stroke="#333" stroke-width="1.5"/>
<line x1="250" y1="223.2795437233607" x2="258" y2="223.2795437233607" stroke="#333" stroke-width="1.5"/>
<line x1="250" y1="224.25509357574208" x2="258" y2="224.25509357574208" stroke="#333" stroke-width="1.5"/>
<text x="254" y="217.76731864955138" text-anchor="middle" fill="#333" font-size="9">850.5</text>
<text x="254" y="320" text-anchor="start" transform="rotate(45,254,320)" fill="#333" font-size="10">EEG 32ch x8t</text>
<rect x="284" y="223.40400610995695" width="36" height="86.59599389004305" fill="#4285f4" rx="3"/>
<line x1="302" y1="222.9738284646009" x2="302" y2="223.834183755313" stroke="#333" stroke-width="1.5"/>
<line x1="298" y1="222.9738284646009" x2="306" y2="222.9738284646009" stroke="#333" stroke-width="1.5"/>
<line x1="298" y1="223.834183755313" x2="306" y2="223.834183755313" stroke="#333" stroke-width="1.5"/>
<text x="302" y="217.40400610995695" text-anchor="middle" fill="#333" font-size="9">854.1</text>
<text x="302" y="320" text-anchor="start" transform="rotate(45,302,320)" fill="#333" font-size="10">EEG 64ch x4t</text>
<rect x="332" y="85.71125529164016" width="36" height="224.28874470835984" fill="#ea4335" rx="3"/>
<line x1="350" y1="85.23486262389336" x2="350" y2="86.18764795938695" stroke="#333" stroke-width="1.5"/>
<line x1="346" y1="85.23486262389336" x2="354" y2="85.23486262389336" stroke="#333" stroke-width="1.5"/>
<line x1="346" y1="86.18764795938695" x2="354" y2="86.18764795938695" stroke="#333" stroke-width="1.5"/>
<text x="350" y="79.71125529164016" text-anchor="middle" fill="#333" font-size="9">2212.2</text>
<text x="350" y="320" text-anchor="start" transform="rotate(45,350,320)" fill="#333" font-size="10">ECG 4ch x150t</text>
<rect x="380" y="85.07511087514271" width="36" height="224.9248891248573" fill="#ea4335" rx="3"/>
<line x1="398" y1="84.47961275870239" x2="398" y2="85.67060899158304" stroke="#333" stroke-width="1.5"/>
<line x1="394" y1="84.47961275870239" x2="402" y2="84.47961275870239" stroke="#333" stroke-width="1.5"/>
<line x1="394" y1="85.67060899158304" x2="402" y2="85.67060899158304" stroke="#333" stroke-width="1.5"/>
<text x="398" y="79.07511087514271" text-anchor="middle" fill="#333" font-size="9">2218.4</text>
<text x="398" y="320" text-anchor="start" transform="rotate(45,398,320)" fill="#333" font-size="10">ECG 8ch x75t</text>
<rect x="428" y="84.94556721379416" width="36" height="225.05443278620584" fill="#ea4335" rx="3"/>
<line x1="446" y1="84.4533236068115" x2="446" y2="85.43781082077683" stroke="#333" stroke-width="1.5"/>
<line x1="442" y1="84.4533236068115" x2="450" y2="84.4533236068115" stroke="#333" stroke-width="1.5"/>
<line x1="442" y1="85.43781082077683" x2="450" y2="85.43781082077683" stroke="#333" stroke-width="1.5"/>
<text x="446" y="78.94556721379416" text-anchor="middle" fill="#333" font-size="9">2219.7</text>
<text x="446" y="320" text-anchor="start" transform="rotate(45,446,320)" fill="#333" font-size="10">ECG 12ch x50t</text>
<rect x="476" y="84.5590573348471" width="36" height="225.4409426651529" fill="#ea4335" rx="3"/>
<line x1="494" y1="83.91304347826085" x2="494" y2="85.20507119143335" stroke="#333" stroke-width="1.5"/>
<line x1="490" y1="83.91304347826085" x2="498" y2="83.91304347826085" stroke="#333" stroke-width="1.5"/>
<line x1="490" y1="85.20507119143335" x2="498" y2="85.20507119143335" stroke="#333" stroke-width="1.5"/>
<text x="494" y="78.5590573348471" text-anchor="middle" fill="#333" font-size="9">2223.5</text>
<text x="494" y="320" text-anchor="start" transform="rotate(45,494,320)" fill="#333" font-size="10">ECG 15ch x40t</text>
<rect x="524" y="173.84322577460043" width="36" height="136.15677422539957" fill="#34a853" rx="3"/>
<line x1="542" y1="173.34008552761378" x2="542" y2="174.34636602158707" stroke="#333" stroke-width="1.5"/>
<line x1="538" y1="173.34008552761378" x2="546" y2="173.34008552761378" stroke="#333" stroke-width="1.5"/>
<line x1="538" y1="174.34636602158707" x2="546" y2="174.34636602158707" stroke="#333" stroke-width="1.5"/>
<text x="542" y="167.84322577460043" text-anchor="middle" fill="#333" font-size="9">1342.9</text>
<text x="542" y="320" text-anchor="start" transform="rotate(45,542,320)" fill="#333" font-size="10">EMG 4ch x64t</text>
<rect x="572" y="173.2888721764835" width="36" height="136.7111278235165" fill="#34a853" rx="3"/>
<line x1="590" y1="172.8654525061597" x2="590" y2="173.7122918468073" stroke="#333" stroke-width="1.5"/>
<line x1="586" y1="172.8654525061597" x2="594" y2="172.8654525061597" stroke="#333" stroke-width="1.5"/>
<line x1="586" y1="173.7122918468073" x2="594" y2="173.7122918468073" stroke="#333" stroke-width="1.5"/>
<text x="590" y="167.2888721764835" text-anchor="middle" fill="#333" font-size="9">1348.4</text>
<text x="590" y="320" text-anchor="start" transform="rotate(45,590,320)" fill="#333" font-size="10">EMG 8ch x32t</text>
<rect x="620" y="173.27125292632525" width="36" height="136.72874707367475" fill="#34a853" rx="3"/>
<line x1="638" y1="172.85989191625782" x2="638" y2="173.68261393639267" stroke="#333" stroke-width="1.5"/>
<line x1="634" y1="172.85989191625782" x2="642" y2="172.85989191625782" stroke="#333" stroke-width="1.5"/>
<line x1="634" y1="173.68261393639267" x2="642" y2="173.68261393639267" stroke="#333" stroke-width="1.5"/>
<text x="638" y="167.27125292632525" text-anchor="middle" fill="#333" font-size="9">1348.6</text>
<text x="638" y="320" text-anchor="start" transform="rotate(45,638,320)" fill="#333" font-size="10">EMG 16ch x16t</text>
</svg>
